STARTFONT 2.1
FONT -tkw-tkw-r-normal--7-50-96-96-C-60-iso8859-1
SIZE 5 96 96
FONTBOUNDINGBOX 6 6 -2 0
STARTPROPERTIES 18
FAMILY_NAME "tkw"
FOUNDRY "tkw"
FACE_NAME "tkw"
SETWIDTH_NAME "Normal"
ADD_STYLE_NAME ""
COPYRIGHT "Copyright kakwalab (C) 2025"
WEIGHT_NAME "normal"
SLANT "r"
PIXEL_SIZE 7
POINT_SIZE 50
RESOLUTION_X 96
RESOLUTION_Y 96
SPACING "C"
FONT_ASCENT 6
FONT_DESCENT 1
AVERAGE_WIDTH 40
CHARSET_REGISTRY "ISO8859"
_GBDFED_INFO "Edited with gbdfed 1.6."
ENDPROPERTIES
CHARS 173
STARTCHAR char35
ENCODING 33
SWIDTH 900 0
DWIDTH 6 0
BBX 6 6 -2 0
BITMAP
10
10
10
10
00
10
ENDCHAR
STARTCHAR char36
ENCODING 34
SWIDTH 900 0
DWIDTH 6 0
BBX 6 6 -2 0
BITMAP
28
28
00
00
00
00
ENDCHAR
STARTCHAR char37
ENCODING 35
SWIDTH 900 0
DWIDTH 6 0
BBX 6 6 -2 0
BITMAP
28
7C
28
28
7C
28
ENDCHAR
STARTCHAR char38
ENCODING 36
SWIDTH 900 0
DWIDTH 6 0
BBX 6 6 -2 0
BITMAP
10
3C
50
38
14
78
ENDCHAR
STARTCHAR char39
ENCODING 37
SWIDTH 900 0
DWIDTH 6 0
BBX 6 6 -2 0
BITMAP
00
24
08
10
24
00
ENDCHAR
STARTCHAR char40
ENCODING 38
SWIDTH 900 0
DWIDTH 6 0
BBX 6 6 -2 0
BITMAP
10
28
10
34
28
14
ENDCHAR
STARTCHAR char41
ENCODING 39
SWIDTH 900 0
DWIDTH 6 0
BBX 6 6 -2 0
BITMAP
08
08
00
00
00
00
ENDCHAR
STARTCHAR char42
ENCODING 40
SWIDTH 900 0
DWIDTH 6 0
BBX 6 6 -2 0
BITMAP
08
10
10
10
10
08
ENDCHAR
STARTCHAR char43
ENCODING 41
SWIDTH 900 0
DWIDTH 6 0
BBX 6 6 -2 0
BITMAP
10
08
08
08
08
10
ENDCHAR
STARTCHAR char42
ENCODING 42
SWIDTH 900 0
DWIDTH 6 0
BBX 6 6 -2 0
BITMAP
00
28
10
7C
10
28
ENDCHAR
STARTCHAR char43
ENCODING 43
SWIDTH 900 0
DWIDTH 6 0
BBX 6 6 -2 0
BITMAP
00
10
10
7C
10
10
ENDCHAR
STARTCHAR char44
ENCODING 44
SWIDTH 900 0
DWIDTH 6 0
BBX 6 6 -2 0
BITMAP
00
00
00
00
08
10
ENDCHAR
STARTCHAR char45
ENCODING 45
SWIDTH 900 0
DWIDTH 6 0
BBX 6 6 -2 0
BITMAP
00
00
00
7C
00
00
ENDCHAR
STARTCHAR char46
ENCODING 46
SWIDTH 900 0
DWIDTH 6 0
BBX 6 6 -2 0
BITMAP
00
00
00
00
08
10
ENDCHAR
STARTCHAR char47
ENCODING 47
SWIDTH 900 0
DWIDTH 6 0
BBX 6 6 -2 0
BITMAP
00
04
08
10
20
00
ENDCHAR
STARTCHAR char0
ENCODING 48
SWIDTH 900 0
DWIDTH 6 0
BBX 6 6 -2 0
BITMAP
18
24
2C
34
24
18
ENDCHAR
STARTCHAR char1
ENCODING 49
SWIDTH 900 0
DWIDTH 6 0
BBX 6 6 -2 0
BITMAP
10
30
10
10
10
38
ENDCHAR
STARTCHAR char2
ENCODING 50
SWIDTH 900 0
DWIDTH 6 0
BBX 6 6 -2 0
BITMAP
18
24
24
08
10
3C
ENDCHAR
STARTCHAR char3
ENCODING 51
SWIDTH 900 0
DWIDTH 6 0
BBX 6 6 -2 0
BITMAP
3C
04
08
04
24
18
ENDCHAR
STARTCHAR char4
ENCODING 52
SWIDTH 900 0
DWIDTH 6 0
BBX 6 6 -2 0
BITMAP
08
18
28
3C
08
08
ENDCHAR
STARTCHAR char5
ENCODING 53
SWIDTH 900 0
DWIDTH 6 0
BBX 6 6 -2 0
BITMAP
3C
20
38
04
04
38
ENDCHAR
STARTCHAR char6
ENCODING 54
SWIDTH 900 0
DWIDTH 6 0
BBX 6 6 -2 0
BITMAP
18
20
38
24
24
18
ENDCHAR
STARTCHAR char7
ENCODING 55
SWIDTH 900 0
DWIDTH 6 0
BBX 6 6 -2 0
BITMAP
3C
04
08
08
10
10
ENDCHAR
STARTCHAR char8
ENCODING 56
SWIDTH 900 0
DWIDTH 6 0
BBX 6 6 -2 0
BITMAP
18
24
18
24
24
18
ENDCHAR
STARTCHAR char9
ENCODING 57
SWIDTH 900 0
DWIDTH 6 0
BBX 6 6 -2 0
BITMAP
18
24
24
1C
04
18
ENDCHAR
STARTCHAR char58
ENCODING 58
SWIDTH 900 0
DWIDTH 6 0
BBX 6 6 -2 0
BITMAP
00
08
00
00
08
00
ENDCHAR
STARTCHAR char59
ENCODING 59
SWIDTH 900 0
DWIDTH 6 0
BBX 6 6 -2 0
BITMAP
00
08
00
00
08
10
ENDCHAR
STARTCHAR char60
ENCODING 60
SWIDTH 900 0
DWIDTH 6 0
BBX 6 6 -2 0
BITMAP
00
08
10
20
10
08
ENDCHAR
STARTCHAR char61
ENCODING 61
SWIDTH 900 0
DWIDTH 6 0
BBX 6 6 -2 0
BITMAP
00
00
3C
00
3C
00
ENDCHAR
STARTCHAR char62
ENCODING 62
SWIDTH 900 0
DWIDTH 6 0
BBX 6 6 -2 0
BITMAP
00
10
08
04
08
10
ENDCHAR
STARTCHAR char63
ENCODING 63
SWIDTH 900 0
DWIDTH 6 0
BBX 6 6 -2 0
BITMAP
18
24
08
08
00
08
ENDCHAR
STARTCHAR char64
ENCODING 64
SWIDTH 900 0
DWIDTH 6 0
BBX 6 6 -2 0
BITMAP
18
34
34
2C
20
1C
ENDCHAR
STARTCHAR char10
ENCODING 65
SWIDTH 900 0
DWIDTH 6 0
BBX 6 6 -2 0
BITMAP
18
24
24
3C
24
24
ENDCHAR
STARTCHAR char11
ENCODING 66
SWIDTH 900 0
DWIDTH 6 0
BBX 6 6 -2 0
BITMAP
38
24
38
24
24
38
ENDCHAR
STARTCHAR char12
ENCODING 67
SWIDTH 900 0
DWIDTH 6 0
BBX 6 6 -2 0
BITMAP
18
24
20
20
24
18
ENDCHAR
STARTCHAR char13
ENCODING 68
SWIDTH 900 0
DWIDTH 6 0
BBX 6 6 -2 0
BITMAP
38
24
24
24
24
38
ENDCHAR
STARTCHAR char14
ENCODING 69
SWIDTH 900 0
DWIDTH 6 0
BBX 6 6 -2 0
BITMAP
3C
20
38
20
20
3C
ENDCHAR
STARTCHAR char15
ENCODING 70
SWIDTH 900 0
DWIDTH 6 0
BBX 6 6 -2 0
BITMAP
3C
20
38
20
20
20
ENDCHAR
STARTCHAR char71
ENCODING 71
SWIDTH 900 0
DWIDTH 6 0
BBX 6 6 -2 0
BITMAP
18
24
20
2C
24
18
ENDCHAR
STARTCHAR char72
ENCODING 72
SWIDTH 900 0
DWIDTH 6 0
BBX 6 6 -2 0
BITMAP
24
24
3C
24
24
24
ENDCHAR
STARTCHAR char73
ENCODING 73
SWIDTH 900 0
DWIDTH 6 0
BBX 6 6 -2 0
BITMAP
38
10
10
10
10
38
ENDCHAR
STARTCHAR char74
ENCODING 74
SWIDTH 900 0
DWIDTH 6 0
BBX 6 6 -2 0
BITMAP
3C
08
08
08
28
10
ENDCHAR
STARTCHAR char75
ENCODING 75
SWIDTH 900 0
DWIDTH 6 0
BBX 6 6 -2 0
BITMAP
28
28
30
28
28
28
ENDCHAR
STARTCHAR char76
ENCODING 76
SWIDTH 900 0
DWIDTH 6 0
BBX 6 6 -2 0
BITMAP
20
20
20
20
20
3C
ENDCHAR
STARTCHAR char77
ENCODING 77
SWIDTH 900 0
DWIDTH 6 0
BBX 6 6 -2 0
BITMAP
24
3C
3C
24
24
24
ENDCHAR
STARTCHAR char78
ENCODING 78
SWIDTH 900 0
DWIDTH 6 0
BBX 6 6 -2 0
BITMAP
24
34
34
2C
2C
24
ENDCHAR
STARTCHAR char79
ENCODING 79
SWIDTH 900 0
DWIDTH 6 0
BBX 6 6 -2 0
BITMAP
18
24
24
24
24
18
ENDCHAR
STARTCHAR char80
ENCODING 80
SWIDTH 900 0
DWIDTH 6 0
BBX 6 6 -2 0
BITMAP
38
24
24
38
20
20
ENDCHAR
STARTCHAR char81
ENCODING 81
SWIDTH 900 0
DWIDTH 6 0
BBX 6 6 -2 0
BITMAP
18
24
24
24
18
04
ENDCHAR
STARTCHAR char82
ENCODING 82
SWIDTH 900 0
DWIDTH 6 0
BBX 6 6 -2 0
BITMAP
38
24
24
38
24
24
ENDCHAR
STARTCHAR char83
ENCODING 83
SWIDTH 900 0
DWIDTH 6 0
BBX 6 6 -2 0
BITMAP
1C
20
18
04
04
38
ENDCHAR
STARTCHAR char84
ENCODING 84
SWIDTH 900 0
DWIDTH 6 0
BBX 6 6 -2 0
BITMAP
7C
10
10
10
10
10
ENDCHAR
STARTCHAR char85
ENCODING 85
SWIDTH 900 0
DWIDTH 6 0
BBX 6 6 -2 0
BITMAP
24
24
24
24
24
18
ENDCHAR
STARTCHAR char86
ENCODING 86
SWIDTH 900 0
DWIDTH 6 0
BBX 6 6 -2 0
BITMAP
24
24
24
18
18
18
ENDCHAR
STARTCHAR char87
ENCODING 87
SWIDTH 900 0
DWIDTH 6 0
BBX 6 6 -2 0
BITMAP
44
44
54
54
28
28
ENDCHAR
STARTCHAR char87
ENCODING 88
SWIDTH 900 0
DWIDTH 6 0
BBX 6 6 -2 0
BITMAP
28
28
10
10
28
28
ENDCHAR
STARTCHAR char87
ENCODING 89
SWIDTH 900 0
DWIDTH 6 0
BBX 6 6 -2 0
BITMAP
24
24
18
08
08
08
ENDCHAR
STARTCHAR char89
ENCODING 90
SWIDTH 900 0
DWIDTH 6 0
BBX 6 6 -2 0
BITMAP
3C
04
08
10
20
3C
ENDCHAR
STARTCHAR char90
ENCODING 91
SWIDTH 900 0
DWIDTH 6 0
BBX 6 6 -2 0
BITMAP
38
20
20
20
20
38
ENDCHAR
STARTCHAR char91
ENCODING 92
SWIDTH 900 0
DWIDTH 6 0
BBX 6 6 -2 0
BITMAP
00
20
10
08
04
00
ENDCHAR
STARTCHAR char92
ENCODING 93
SWIDTH 900 0
DWIDTH 6 0
BBX 6 6 -2 0
BITMAP
1C
04
04
04
04
1C
ENDCHAR
STARTCHAR char93
ENCODING 94
SWIDTH 900 0
DWIDTH 6 0
BBX 6 6 -2 0
BITMAP
10
28
00
00
00
00
ENDCHAR
STARTCHAR char95
ENCODING 95
SWIDTH 900 0
DWIDTH 6 0
BBX 6 6 -2 0
BITMAP
00
00
00
00
00
3C
ENDCHAR
STARTCHAR char96
ENCODING 96
SWIDTH 900 0
DWIDTH 6 0
BBX 6 6 -2 0
BITMAP
20
10
00
00
00
00
ENDCHAR
STARTCHAR char97
ENCODING 97
SWIDTH 900 0
DWIDTH 6 0
BBX 6 6 -2 0
BITMAP
00
18
04
1C
24
1C
ENDCHAR
STARTCHAR char98
ENCODING 98
SWIDTH 900 0
DWIDTH 6 0
BBX 6 6 -2 0
BITMAP
20
20
38
24
24
38
ENDCHAR
STARTCHAR char99
ENCODING 99
SWIDTH 900 0
DWIDTH 6 0
BBX 6 6 -2 0
BITMAP
00
00
18
20
20
18
ENDCHAR
STARTCHAR char100
ENCODING 100
SWIDTH 900 0
DWIDTH 6 0
BBX 6 6 -2 0
BITMAP
04
04
1C
24
24
1C
ENDCHAR
STARTCHAR char101
ENCODING 101
SWIDTH 900 0
DWIDTH 6 0
BBX 6 6 -2 0
BITMAP
00
18
24
38
20
1C
ENDCHAR
STARTCHAR char102
ENCODING 102
SWIDTH 900 0
DWIDTH 6 0
BBX 6 6 -2 0
BITMAP
00
1C
20
38
20
20
ENDCHAR
STARTCHAR char103
ENCODING 103
SWIDTH 900 0
DWIDTH 6 0
BBX 6 6 -2 0
BITMAP
00
1C
24
1C
04
38
ENDCHAR
STARTCHAR char104
ENCODING 104
SWIDTH 900 0
DWIDTH 6 0
BBX 6 6 -2 0
BITMAP
20
20
38
24
24
24
ENDCHAR
STARTCHAR char105
ENCODING 105
SWIDTH 900 0
DWIDTH 6 0
BBX 6 6 -2 0
BITMAP
00
10
00
10
10
08
ENDCHAR
STARTCHAR char106
ENCODING 106
SWIDTH 900 0
DWIDTH 6 0
BBX 6 6 -2 0
BITMAP
00
3C
08
08
28
10
ENDCHAR
STARTCHAR char107
ENCODING 107
SWIDTH 900 0
DWIDTH 6 0
BBX 6 6 -2 0
BITMAP
20
24
28
30
28
24
ENDCHAR
STARTCHAR char108
ENCODING 108
SWIDTH 900 0
DWIDTH 6 0
BBX 6 6 -2 0
BITMAP
30
10
10
10
10
38
ENDCHAR
STARTCHAR char109
ENCODING 109
SWIDTH 900 0
DWIDTH 6 0
BBX 6 6 -2 0
BITMAP
00
68
54
54
54
54
ENDCHAR
STARTCHAR char110
ENCODING 110
SWIDTH 900 0
DWIDTH 6 0
BBX 6 6 -2 0
BITMAP
00
38
24
24
24
24
ENDCHAR
STARTCHAR char111
ENCODING 111
SWIDTH 900 0
DWIDTH 6 0
BBX 6 6 -2 0
BITMAP
00
18
24
24
24
18
ENDCHAR
STARTCHAR char112
ENCODING 112
SWIDTH 900 0
DWIDTH 6 0
BBX 6 6 -2 0
BITMAP
00
38
24
38
20
20
ENDCHAR
STARTCHAR char113
ENCODING 113
SWIDTH 900 0
DWIDTH 6 0
BBX 6 6 -2 0
BITMAP
00
1C
24
1C
04
04
ENDCHAR
STARTCHAR char114
ENCODING 114
SWIDTH 900 0
DWIDTH 6 0
BBX 6 6 -2 0
BITMAP
00
28
34
20
20
20
ENDCHAR
STARTCHAR char115
ENCODING 115
SWIDTH 900 0
DWIDTH 6 0
BBX 6 6 -2 0
BITMAP
00
1C
20
18
04
38
ENDCHAR
STARTCHAR char116
ENCODING 116
SWIDTH 900 0
DWIDTH 6 0
BBX 6 6 -2 0
BITMAP
20
20
38
20
20
1C
ENDCHAR
STARTCHAR char117
ENCODING 117
SWIDTH 900 0
DWIDTH 6 0
BBX 6 6 -2 0
BITMAP
00
24
24
24
24
18
ENDCHAR
STARTCHAR char118
ENCODING 118
SWIDTH 900 0
DWIDTH 6 0
BBX 6 6 -2 0
BITMAP
00
24
24
18
18
18
ENDCHAR
STARTCHAR char119
ENCODING 119
SWIDTH 900 0
DWIDTH 6 0
BBX 6 6 -2 0
BITMAP
00
54
54
28
28
28
ENDCHAR
STARTCHAR char120
ENCODING 120
SWIDTH 900 0
DWIDTH 6 0
BBX 6 6 -2 0
BITMAP
00
24
18
18
18
24
ENDCHAR
STARTCHAR char121
ENCODING 121
SWIDTH 900 0
DWIDTH 6 0
BBX 6 6 -2 0
BITMAP
00
24
24
1C
04
18
ENDCHAR
STARTCHAR char122
ENCODING 122
SWIDTH 900 0
DWIDTH 6 0
BBX 6 6 -2 0
BITMAP
00
3C
08
10
20
3C
ENDCHAR
STARTCHAR char123
ENCODING 123
SWIDTH 900 0
DWIDTH 6 0
BBX 6 6 -2 0
BITMAP
18
10
30
30
10
18
ENDCHAR
STARTCHAR char125
ENCODING 124
SWIDTH 900 0
DWIDTH 6 0
BBX 6 6 -2 0
BITMAP
10
10
10
10
10
10
ENDCHAR
STARTCHAR char125
ENCODING 125
SWIDTH 900 0
DWIDTH 6 0
BBX 6 6 -2 0
BITMAP
18
08
0C
0C
08
18
ENDCHAR
STARTCHAR char126
ENCODING 126
SWIDTH 900 0
DWIDTH 6 0
BBX 6 6 -2 0
BITMAP
14
28
00
00
00
00
ENDCHAR
STARTCHAR char125
ENCODING 161
SWIDTH 900 0
DWIDTH 6 0
BBX 6 6 -2 0
BITMAP
10
00
10
10
10
10
ENDCHAR
STARTCHAR char162
ENCODING 162
SWIDTH 900 0
DWIDTH 6 0
BBX 6 6 -2 0
BITMAP
08
1C
28
28
1C
08
ENDCHAR
STARTCHAR char163
ENCODING 163
SWIDTH 900 0
DWIDTH 6 0
BBX 6 6 -2 0
BITMAP
08
14
10
38
10
3C
ENDCHAR
STARTCHAR char164
ENCODING 164
SWIDTH 900 0
DWIDTH 6 0
BBX 6 6 -2 0
BITMAP
00
44
38
28
38
44
ENDCHAR
STARTCHAR char165
ENCODING 165
SWIDTH 900 0
DWIDTH 6 0
BBX 6 6 -2 0
BITMAP
28
28
7C
10
7C
10
ENDCHAR
STARTCHAR char166
ENCODING 166
SWIDTH 900 0
DWIDTH 6 0
BBX 6 6 -2 0
BITMAP
10
10
00
00
10
10
ENDCHAR
STARTCHAR char167
ENCODING 167
SWIDTH 900 0
DWIDTH 6 0
BBX 6 6 -2 0
BITMAP
1C
20
3C
3C
04
38
ENDCHAR
STARTCHAR char168
ENCODING 168
SWIDTH 900 0
DWIDTH 6 0
BBX 6 6 -2 0
BITMAP
24
00
00
00
00
00
ENDCHAR
STARTCHAR char169
ENCODING 169
SWIDTH 900 0
DWIDTH 6 0
BBX 6 6 -2 0
BITMAP
78
84
B4
C4
B4
7C
ENDCHAR
STARTCHAR char170
ENCODING 170
SWIDTH 900 0
DWIDTH 6 0
BBX 6 6 -2 0
BITMAP
38
14
3C
00
3C
00
ENDCHAR
STARTCHAR char171
ENCODING 171
SWIDTH 900 0
DWIDTH 6 0
BBX 6 6 -2 0
BITMAP
00
14
28
14
00
00
ENDCHAR
STARTCHAR char172
ENCODING 172
SWIDTH 900 0
DWIDTH 6 0
BBX 6 6 -2 0
BITMAP
00
00
3C
04
00
00
ENDCHAR
STARTCHAR char173
ENCODING 173
SWIDTH 900 0
DWIDTH 6 0
BBX 6 6 -2 0
BITMAP
00
00
38
00
00
00
ENDCHAR
STARTCHAR char169
ENCODING 174
SWIDTH 900 0
DWIDTH 6 0
BBX 6 6 -2 0
BITMAP
78
E4
D4
E4
D4
7C
ENDCHAR
STARTCHAR char175
ENCODING 175
SWIDTH 900 0
DWIDTH 6 0
BBX 6 6 -2 0
BITMAP
00
3C
00
00
00
00
ENDCHAR
STARTCHAR char176
ENCODING 176
SWIDTH 900 0
DWIDTH 6 0
BBX 6 6 -2 0
BITMAP
10
28
10
00
00
00
ENDCHAR
STARTCHAR char177
ENCODING 177
SWIDTH 900 0
DWIDTH 6 0
BBX 6 6 -2 0
BITMAP
10
10
7C
10
10
7C
ENDCHAR
STARTCHAR char179
ENCODING 178
SWIDTH 900 0
DWIDTH 6 0
BBX 6 6 -2 0
BITMAP
10
28
10
38
00
00
ENDCHAR
STARTCHAR char179
ENCODING 179
SWIDTH 900 0
DWIDTH 6 0
BBX 6 6 -2 0
BITMAP
38
18
08
38
00
00
ENDCHAR
STARTCHAR char180
ENCODING 180
SWIDTH 900 0
DWIDTH 6 0
BBX 6 6 -2 0
BITMAP
08
10
00
00
00
00
ENDCHAR
STARTCHAR char181
ENCODING 181
SWIDTH 900 0
DWIDTH 6 0
BBX 6 6 -2 0
BITMAP
00
24
24
24
3C
20
ENDCHAR
STARTCHAR char182
ENCODING 182
SWIDTH 900 0
DWIDTH 6 0
BBX 6 6 -2 0
BITMAP
3C
54
54
34
14
14
ENDCHAR
STARTCHAR char183
ENCODING 183
SWIDTH 900 0
DWIDTH 6 0
BBX 6 6 -2 0
BITMAP
00
00
10
10
00
00
ENDCHAR
STARTCHAR char184
ENCODING 184
SWIDTH 900 0
DWIDTH 6 0
BBX 6 6 -2 0
BITMAP
00
00
00
00
08
10
ENDCHAR
STARTCHAR char184
ENCODING 185
SWIDTH 900 0
DWIDTH 6 0
BBX 6 6 -2 0
BITMAP
08
18
08
08
00
00
ENDCHAR
STARTCHAR char178
ENCODING 186
SWIDTH 900 0
DWIDTH 6 0
BBX 6 6 -2 0
BITMAP
18
24
18
3C
00
00
ENDCHAR
STARTCHAR char171
ENCODING 187
SWIDTH 900 0
DWIDTH 6 0
BBX 6 6 -2 0
BITMAP
00
28
14
28
00
00
ENDCHAR
STARTCHAR char187
ENCODING 188
SWIDTH 900 0
DWIDTH 6 0
BBX 6 6 -2 0
BITMAP
10
14
08
14
2C
04
ENDCHAR
STARTCHAR char187
ENCODING 189
SWIDTH 900 0
DWIDTH 6 0
BBX 6 6 -2 0
BITMAP
10
14
08
1C
24
0C
ENDCHAR
STARTCHAR char187
ENCODING 190
SWIDTH 900 0
DWIDTH 6 0
BBX 6 6 -2 0
BITMAP
30
34
08
14
2C
04
ENDCHAR
STARTCHAR char191
ENCODING 191
SWIDTH 900 0
DWIDTH 6 0
BBX 6 6 -2 0
BITMAP
08
00
08
10
20
18
ENDCHAR
STARTCHAR char10
ENCODING 192
SWIDTH 900 0
DWIDTH 6 0
BBX 6 6 -2 0
BITMAP
10
08
18
24
3C
24
ENDCHAR
STARTCHAR char10
ENCODING 193
SWIDTH 900 0
DWIDTH 6 0
BBX 6 6 -2 0
BITMAP
08
10
18
24
3C
24
ENDCHAR
STARTCHAR char10
ENCODING 194
SWIDTH 900 0
DWIDTH 6 0
BBX 6 6 -2 0
BITMAP
18
24
18
24
3C
24
ENDCHAR
STARTCHAR char10
ENCODING 195
SWIDTH 900 0
DWIDTH 6 0
BBX 6 6 -2 0
BITMAP
14
28
18
24
3C
24
ENDCHAR
STARTCHAR char10
ENCODING 196
SWIDTH 900 0
DWIDTH 6 0
BBX 6 6 -2 0
BITMAP
24
00
18
24
3C
24
ENDCHAR
STARTCHAR char10
ENCODING 197
SWIDTH 900 0
DWIDTH 6 0
BBX 6 6 -2 0
BITMAP
18
24
18
24
3C
24
ENDCHAR
STARTCHAR char10
ENCODING 198
SWIDTH 900 0
DWIDTH 6 0
BBX 6 6 -2 0
BITMAP
2C
50
7C
50
50
5C
ENDCHAR
STARTCHAR char198
ENCODING 199
SWIDTH 900 0
DWIDTH 6 0
BBX 6 6 -2 0
BITMAP
18
24
20
24
18
10
ENDCHAR
STARTCHAR char199
ENCODING 200
SWIDTH 900 0
DWIDTH 6 0
BBX 6 6 -2 0
BITMAP
08
3C
20
3C
20
3C
ENDCHAR
STARTCHAR char199
ENCODING 201
SWIDTH 900 0
DWIDTH 6 0
BBX 6 6 -2 0
BITMAP
10
3C
20
3C
20
3C
ENDCHAR
STARTCHAR char199
ENCODING 202
SWIDTH 900 0
DWIDTH 6 0
BBX 6 6 -2 0
BITMAP
18
3C
20
3C
20
3C
ENDCHAR
STARTCHAR char199
ENCODING 203
SWIDTH 900 0
DWIDTH 6 0
BBX 6 6 -2 0
BITMAP
24
3C
20
3C
20
3C
ENDCHAR
STARTCHAR char203
ENCODING 204
SWIDTH 900 0
DWIDTH 6 0
BBX 6 6 -2 0
BITMAP
20
00
38
10
10
38
ENDCHAR
STARTCHAR char204
ENCODING 205
SWIDTH 900 0
DWIDTH 6 0
BBX 6 6 -2 0
BITMAP
08
00
38
10
10
38
ENDCHAR
STARTCHAR char205
ENCODING 206
SWIDTH 900 0
DWIDTH 6 0
BBX 6 6 -2 0
BITMAP
10
28
38
10
10
38
ENDCHAR
STARTCHAR char206
ENCODING 207
SWIDTH 900 0
DWIDTH 6 0
BBX 6 6 -2 0
BITMAP
28
00
38
10
10
38
ENDCHAR
STARTCHAR char97
ENCODING 224
SWIDTH 900 0
DWIDTH 6 0
BBX 6 6 -2 0
BITMAP
10
18
04
1C
24
1C
ENDCHAR
STARTCHAR char97
ENCODING 225
SWIDTH 900 0
DWIDTH 6 0
BBX 6 6 -2 0
BITMAP
08
18
04
1C
24
1C
ENDCHAR
STARTCHAR char97
ENCODING 226
SWIDTH 900 0
DWIDTH 6 0
BBX 6 6 -2 0
BITMAP
18
18
04
1C
24
1C
ENDCHAR
STARTCHAR char97
ENCODING 227
SWIDTH 900 0
DWIDTH 6 0
BBX 6 6 -2 0
BITMAP
14
28
04
1C
24
1C
ENDCHAR
STARTCHAR char97
ENCODING 228
SWIDTH 900 0
DWIDTH 6 0
BBX 6 6 -2 0
BITMAP
24
18
04
1C
24
1C
ENDCHAR
STARTCHAR char97
ENCODING 229
SWIDTH 900 0
DWIDTH 6 0
BBX 6 6 -2 0
BITMAP
18
3C
04
1C
24
1C
ENDCHAR
STARTCHAR char97
ENCODING 230
SWIDTH 900 0
DWIDTH 6 0
BBX 6 6 -2 0
BITMAP
00
7C
14
7C
90
7C
ENDCHAR
STARTCHAR char99
ENCODING 231
SWIDTH 900 0
DWIDTH 6 0
BBX 6 6 -2 0
BITMAP
00
00
1C
20
1C
08
ENDCHAR
STARTCHAR char101
ENCODING 232
SWIDTH 900 0
DWIDTH 6 0
BBX 6 6 -2 0
BITMAP
10
18
24
38
20
1C
ENDCHAR
STARTCHAR char101
ENCODING 233
SWIDTH 900 0
DWIDTH 6 0
BBX 6 6 -2 0
BITMAP
08
18
24
38
20
1C
ENDCHAR
STARTCHAR char101
ENCODING 234
SWIDTH 900 0
DWIDTH 6 0
BBX 6 6 -2 0
BITMAP
18
3C
24
38
20
1C
ENDCHAR
STARTCHAR char101
ENCODING 235
SWIDTH 900 0
DWIDTH 6 0
BBX 6 6 -2 0
BITMAP
24
18
24
38
20
1C
ENDCHAR
STARTCHAR char105
ENCODING 236
SWIDTH 900 0
DWIDTH 6 0
BBX 6 6 -2 0
BITMAP
20
10
00
10
10
08
ENDCHAR
STARTCHAR char105
ENCODING 237
SWIDTH 900 0
DWIDTH 6 0
BBX 6 6 -2 0
BITMAP
10
20
00
10
10
08
ENDCHAR
STARTCHAR char105
ENCODING 238
SWIDTH 900 0
DWIDTH 6 0
BBX 6 6 -2 0
BITMAP
10
28
00
10
10
08
ENDCHAR
STARTCHAR char105
ENCODING 239
SWIDTH 900 0
DWIDTH 6 0
BBX 6 6 -2 0
BITMAP
00
28
00
10
10
08
ENDCHAR
STARTCHAR char111
ENCODING 240
SWIDTH 900 0
DWIDTH 6 0
BBX 6 6 -2 0
BITMAP
10
3C
18
28
28
10
ENDCHAR
STARTCHAR char110
ENCODING 241
SWIDTH 900 0
DWIDTH 6 0
BBX 6 6 -2 0
BITMAP
14
28
30
28
28
28
ENDCHAR
STARTCHAR char111
ENCODING 242
SWIDTH 900 0
DWIDTH 6 0
BBX 6 6 -2 0
BITMAP
08
10
18
24
24
18
ENDCHAR
STARTCHAR char111
ENCODING 243
SWIDTH 900 0
DWIDTH 6 0
BBX 6 6 -2 0
BITMAP
10
08
18
24
24
18
ENDCHAR
STARTCHAR char111
ENCODING 244
SWIDTH 900 0
DWIDTH 6 0
BBX 6 6 -2 0
BITMAP
18
24
18
24
24
18
ENDCHAR
STARTCHAR char111
ENCODING 245
SWIDTH 900 0
DWIDTH 6 0
BBX 6 6 -2 0
BITMAP
14
28
18
24
24
18
ENDCHAR
STARTCHAR char111
ENCODING 246
SWIDTH 900 0
DWIDTH 6 0
BBX 6 6 -2 0
BITMAP
24
00
18
24
24
18
ENDCHAR
STARTCHAR char43
ENCODING 247
SWIDTH 900 0
DWIDTH 6 0
BBX 6 6 -2 0
BITMAP
00
10
00
7C
00
10
ENDCHAR
STARTCHAR char111
ENCODING 248
SWIDTH 900 0
DWIDTH 6 0
BBX 6 6 -2 0
BITMAP
34
48
58
68
48
B0
ENDCHAR
STARTCHAR char117
ENCODING 249
SWIDTH 900 0
DWIDTH 6 0
BBX 6 6 -2 0
BITMAP
10
08
00
24
24
18
ENDCHAR
STARTCHAR char117
ENCODING 250
SWIDTH 900 0
DWIDTH 6 0
BBX 6 6 -2 0
BITMAP
08
10
00
24
24
18
ENDCHAR
STARTCHAR char117
ENCODING 251
SWIDTH 900 0
DWIDTH 6 0
BBX 6 6 -2 0
BITMAP
18
24
00
24
24
18
ENDCHAR
STARTCHAR char117
ENCODING 252
SWIDTH 900 0
DWIDTH 6 0
BBX 6 6 -2 0
BITMAP
24
00
00
24
24
18
ENDCHAR
STARTCHAR char121
ENCODING 253
SWIDTH 900 0
DWIDTH 6 0
BBX 6 6 -2 0
BITMAP
08
10
28
28
10
10
ENDCHAR
STARTCHAR char254
ENCODING 254
SWIDTH 900 0
DWIDTH 6 0
BBX 6 6 -2 0
BITMAP
20
38
24
24
38
20
ENDCHAR
STARTCHAR char121
ENCODING 255
SWIDTH 900 0
DWIDTH 6 0
BBX 6 6 -2 0
BITMAP
28
00
28
28
10
10
ENDCHAR
ENDFONT
